<?xml version="1.0" encoding="UTF-8"?>
<svg id="Layer_1" data-name="Layer 1" xmlns="http://www.w3.org/2000/svg" viewBox="0 0 1281.01 313.54">
  <defs>
    <style>
      .cls-1 {
        fill: none;
      }

      .cls-1, .cls-2, .cls-3 {
        stroke-width: 0px;
      }

      .cls-2 {
        fill: #ff1d25;
      }

      .cls-4 {
        fill: #000;
        stroke: #ff1d25;
        stroke-miterlimit: 10;
        stroke-width: 10px;
      }

      .cls-3 {
        fill: #fff;
      }
    </style>
  </defs>
  <path class="cls-2" d="M254.43,138.65c0,.22,0,.44,0,.66-.25,12.99-11.36,23.06-15.33,35.43-3.92,12.21-.91,26.73-8.4,37.13-7.63,10.6-22.73,12.21-33.27,19.92-10.33,7.56-16.37,21.05-28.47,25.23-10.72,3.71-22.26-1.25-33.49-2.81,6.26-3.99,11.31-9.85,14.34-16.62,6.94,3.8,15.69-.44,21.2-6.12,5.5-5.68,9.55-12.92,16.17-17.26,8.66-5.68,21.04-5.95,27.08-14.36,6.1-8.49,2.27-20.48,5.2-30.52,3.27-11.23,14.91-19.72,14.54-31.4-.34-10.73-10.71-18.37-14.08-28.56-3.51-10.61.65-23.64-6.16-32.5-6.28-8.17-18.55-8.34-27.1-14.1-6.22-4.18-10.03-11.02-15.12-16.52s-12.98-9.88-19.89-6.97c-2.41,9.03-8.31,17.08-16.19,22.11-7.47,4.76-18.42,6.28-24.45-.21-6.16-6.63-4.02-17.53.29-24.49,4.58-7.39,11.36-14.45,20.07-16.58,1.94-.47,3.94-.68,5.94-.6,2.76.11,5.47.78,8.23.88,5.59.2,11.07-1.94,16.65-1.66,8.19.41,15.21,5.91,20.83,11.87s10.58,12.76,17.5,17.16c9.16,5.82,21.27,7.15,28.46,15.28,9.17,10.37,6.03,26.46,10.3,39.62,4.06,12.5,15.06,22.94,15.17,36Z"/>
  <path class="cls-4" d="M149.6,237.74c-1.18,2.51-2.69,4.89-4.35,7.11-5.76,7.66-14.51,14.15-24.06,13.39-2.64-.21-5.22-.97-7.87-1.14-5.31-.35-10.55,1.68-15.87,1.48-8.18-.3-15.24-5.76-20.86-11.71s-10.56-12.74-17.45-17.16c-9.24-5.93-21.53-7.28-28.76-15.55-9.06-10.36-5.97-26.34-10.2-39.44-4.14-12.79-15.51-23.47-15.18-36.91.32-12.89,11.32-22.86,15.29-35.13,2.99-9.22,1.92-19.15,4.42-28.48s8.5-14.37,16.69-18.44c7.65-3.81,16.06-6.46,22.78-11.91,7.75-6.29,12.55-15.97,21.18-21,11.5-6.7,25.99-3.19,38.78.5-6.38,3.77-11.55,9.55-14.59,16.31-6.95-3.76-15.66.49-21.15,6.17s-9.53,12.9-16.13,17.23c-8.65,5.67-21.03,5.95-27.07,14.34-6.12,8.5-2.28,20.52-5.22,30.57-3.28,11.21-14.89,19.69-14.53,31.36.33,10.74,10.71,18.39,14.09,28.59,3.51,10.61-.66,23.63,6.15,32.49,6.28,8.17,18.54,8.34,27.09,14.08,6.2,4.17,10.02,10.99,15.09,16.48s12.9,9.9,19.82,7.09c2.73-10.91,10.99-20.29,21.47-24.37,4.79-1.86,10.36-2.62,14.96-.33,5.38,2.67,8.2,9.07,7.92,15.07-.15,3.23-1.06,6.35-2.44,9.29Z"/>
  <path class="cls-1" d="M234.11,138.65c0,10.74-11.07,19.61-14.21,29.3-3.26,10.05.36,23.7-5.72,32.07-6.15,8.44-20.29,9.18-28.74,15.33-8.37,6.09-13.41,19.35-23.45,22.61-3.84,1.25-8.02.8-12.33-.2,3.46-8.04,3.18-16.3-1.48-21.36-6.92-7.52-20.85-5.17-31.12,5.25-4.91,4.98-8.09,10.9-9.32,16.55-3.59.67-7.06.83-10.29-.23-10.05-3.26-15.09-16.53-23.45-22.61-8.45-6.15-22.59-6.89-28.74-15.33-6.09-8.37-2.46-22.02-5.72-32.07-3.14-9.7-14.21-18.56-14.21-29.3s11.07-19.61,14.21-29.3c3.26-10.05-.36-23.7,5.72-32.07,6.15-8.44,20.29-9.18,28.74-15.33,8.37-6.09,13.41-19.35,23.45-22.61,3.81-1.24,7.95-.81,12.23.18-3.65,8.16-3.44,16.62,1.3,21.78,6.92,7.51,20.85,5.16,31.12-5.25,5.01-5.08,8.22-11.14,9.39-16.9,3.66-.71,7.2-.88,10.49.19,10.05,3.26,15.09,16.53,23.45,22.61,8.45,6.15,22.59,6.89,28.74,15.33,6.09,8.37,2.46,22.02,5.72,32.07,3.14,9.7,14.21,18.56,14.21,29.3Z"/>
  <circle class="cls-3" cx="122.27" cy="43.37" r="4.56"/>
  <circle class="cls-3" cx="136.67" cy="234.41" r="4.56"/>
  <g>
    <path class="cls-2" d="M453.06,131.19v98.02h-19.6c-1.42-6.89-3.45-13.92-6.11-21.08-13.08,15.93-29.74,23.9-49.98,23.9-23.91,0-42.52-8.55-55.82-25.65-13.3-17.1-19.95-39.21-19.95-66.33,0-29.18,7.09-52.64,21.28-70.36,14.19-17.72,33.46-26.59,57.81-26.59,20.41,0,36.88,5.73,49.41,17.19,12.53,11.46,20.19,26.72,22.96,45.79l-40.82,5.37c-3.31-22.2-13.83-33.3-31.55-33.3-11.64,0-20.43,5.26-26.39,15.78-5.96,10.52-8.93,25.54-8.93,45.05s3.22,33.17,9.67,43.1,15.62,14.9,27.53,14.9c7.7,0,14.57-2.5,20.61-7.52,6.04-5.01,9.06-13.02,9.06-24.04h-34.51v-34.24h75.33Z"/>
    <path class="cls-2" d="M603.31,229.21h-38.81c-1.25-5.37-1.88-12.44-1.88-21.21-6.79,9.67-13.56,16.09-20.31,19.27-6.75,3.18-14.41,4.77-22.99,4.77-12.69,0-22.95-3.45-30.77-10.34-7.82-6.89-11.73-16.16-11.73-27.79,0-8.5,2.28-16.34,6.84-23.5,4.56-7.16,11.89-12.78,21.99-16.85,10.1-4.07,28.51-7.09,55.23-9.06v-7.79c0-13.16-6.56-19.74-19.68-19.74-14.01,0-21.82,6.58-23.43,19.74l-36.93-3.49c2.42-15.4,9.71-26.32,21.89-32.76,12.17-6.45,25.96-9.67,41.36-9.67,9.22,0,17.9,1.07,26.05,3.22,8.14,2.15,14.5,5.37,19.07,9.67,4.57,4.3,7.65,8.84,9.27,13.63,1.61,4.79,2.42,13.14,2.42,25.04v61.5c0,11.82.81,20.28,2.42,25.38ZM560.88,164.22c-27.93,2.78-41.89,11.24-41.89,25.38,0,4.75,1.47,8.84,4.42,12.29,2.95,3.45,7.14,5.17,12.58,5.17,7.05,0,12.96-2.93,17.73-8.8,4.77-5.86,7.16-13.09,7.16-21.69v-12.35Z"/>
    <path class="cls-2" d="M735.44,126.35l-29.14,7.79c-3.4-12.26-12.22-18.4-26.45-18.4-13.43,0-20.14,4.08-20.14,12.24,0,3.23,1.23,5.81,3.69,7.74,2.46,1.93,8.88,3.56,19.27,4.89,15.49,2.04,26.95,4.41,34.38,7.09,7.43,2.69,13.31,7.21,17.66,13.56,4.34,6.36,6.51,14.19,6.51,23.5,0,13.96-5.3,25.33-15.91,34.11-10.61,8.77-25.45,13.16-44.51,13.16-34.56,0-55.19-13.38-61.9-40.15l33.7-4.97c2.77,12.18,12.8,18.26,30.08,18.26,6.62,0,12.22-1.19,16.78-3.57,4.57-2.38,6.85-5.59,6.85-9.62,0-6.28-5.05-10-15.17-11.15-27.4-3.37-45.41-8.62-54.05-15.74-8.64-7.12-12.96-17.03-12.96-29.74s5.01-23.54,15.04-31.96c10.02-8.41,24.08-12.62,42.16-12.62,14.32,0,25.78,2.82,34.38,8.46s15.17,14.68,19.74,27.12Z"/>
    <path class="cls-2" d="M883.28,178.32c-1.52,16.03-7.85,28.98-19,38.87-11.14,9.89-25.54,14.84-43.17,14.84-19.16,0-34.76-6.33-46.8-19-12.04-12.67-18.06-29.61-18.06-50.82s6.15-38.42,18.46-51.63c12.31-13.2,28.76-19.81,49.35-19.81,16.56,0,30.28,4.97,41.16,14.9,10.88,9.94,16.9,22.38,18.06,37.33l-37.33,2.15c-1.25-16.29-8.33-24.44-21.22-24.44-15.84,0-23.77,12.98-23.77,38.94,0,17.28,2.22,28.24,6.65,32.9,4.43,4.66,9.82,6.98,16.18,6.98,12.35,0,19.74-7.83,22.16-23.5l37.33,2.28Z"/>
    <path class="cls-2" d="M1023.07,229.21h-38.81c-1.25-5.37-1.88-12.44-1.88-21.21-6.79,9.67-13.56,16.09-20.31,19.27-6.75,3.18-14.41,4.77-22.99,4.77-12.69,0-22.95-3.45-30.77-10.34-7.82-6.89-11.73-16.16-11.73-27.79,0-8.5,2.28-16.34,6.84-23.5,4.56-7.16,11.89-12.78,21.99-16.85,10.1-4.07,28.51-7.09,55.23-9.06v-7.79c0-13.16-6.56-19.74-19.68-19.74-14.01,0-21.82,6.58-23.43,19.74l-36.93-3.49c2.42-15.4,9.71-26.32,21.89-32.76,12.17-6.45,25.96-9.67,41.36-9.67,9.22,0,17.9,1.07,26.05,3.22,8.14,2.15,14.5,5.37,19.07,9.67,4.57,4.3,7.65,8.84,9.27,13.63,1.61,4.79,2.42,13.14,2.42,25.04v61.5c0,11.82.81,20.28,2.42,25.38ZM980.63,164.22c-27.93,2.78-41.89,11.24-41.89,25.38,0,4.75,1.47,8.84,4.42,12.29,2.95,3.45,7.14,5.17,12.58,5.17,7.05,0,12.96-2.93,17.73-8.8,4.77-5.86,7.16-13.09,7.16-21.69v-12.35Z"/>
    <path class="cls-2" d="M1092.49,229.21h-38.81V93.59h36.66v25.24c5.64-18.8,15.4-28.2,29.27-28.2,1.97,0,4.38.13,7.25.4v39.48c-8.15,0-14.48,1.25-19,3.76-4.52,2.51-8.21,7.01-11.08,13.49-2.87,6.49-4.3,15.24-4.3,26.25v55.19Z"/>
    <path class="cls-2" d="M1264.5,45.92v183.29h-36.93v-21.21c-9.15,16.03-21.61,24.04-37.39,24.04s-26.79-6.11-35.44-18.33c-8.65-12.22-12.98-29.16-12.98-50.82s4.33-40.22,12.98-52.97c8.65-12.76,21.18-19.13,37.59-19.13,14.43,0,25.55,5.69,33.35,17.05v-61.9h38.81ZM1225.69,150.39c0-21.3-6.47-31.96-19.4-31.96-15.45,0-23.17,15.04-23.17,45.12,0,26.77,7.23,40.15,21.69,40.15,5.57,0,10.44-2.42,14.61-7.25,4.18-4.83,6.27-11.73,6.27-20.68v-25.38Z"/>
  </g>
</svg>