<?xml version="1.0" encoding="UTF-8"?>
<svg id="Layer_1" data-name="Layer 1" xmlns="http://www.w3.org/2000/svg" viewBox="0 0 1615.04 508.97">
  <defs>
    <style>
      .cls-1 {
        stroke: #000;
        stroke-width: 5px;
      }

      .cls-1, .cls-2 {
        stroke-miterlimit: 10;
      }

      .cls-1, .cls-3 {
        fill: #fff;
      }

      .cls-4 {
        fill: none;
      }

      .cls-4, .cls-5, .cls-3 {
        stroke-width: 0px;
      }

      .cls-5 {
        fill: #ff1d25;
      }

      .cls-2 {
        fill: #000;
        stroke: #ff1d25;
        stroke-width: 10px;
      }
    </style>
  </defs>
  <path class="cls-5" d="M524.64,254.11c0,.46,0,.91,0,1.37-.52,27.06-23.67,48.04-31.94,73.81-8.16,25.43-1.9,55.69-17.5,77.36-15.89,22.09-47.36,25.43-69.32,41.49-21.53,15.74-34.1,43.85-59.31,52.57-22.33,7.73-46.37-2.6-69.77-5.84,13.03-8.31,23.55-20.51,29.87-34.62,14.46,7.91,32.69-.91,44.16-12.75,11.47-11.84,19.91-26.92,33.69-35.96,18.04-11.82,43.83-12.4,56.41-29.92,12.7-17.69,4.73-42.67,10.82-63.58,6.82-23.39,31.05-41.08,30.29-65.43-.7-22.36-22.3-38.27-29.33-59.51-7.32-22.11,1.36-49.25-12.84-67.71-13.08-17.02-38.65-17.38-56.46-29.37-12.95-8.72-20.9-22.96-31.5-34.42s-27.05-20.58-41.43-14.52c-5.03,18.82-17.31,35.59-33.73,46.07-15.55,9.92-38.38,13.07-50.94-.44-12.83-13.8-8.38-36.52.61-51.01,9.55-15.39,23.66-30.1,41.81-34.55,4.04-.99,8.21-1.42,12.37-1.25,5.74.24,11.4,1.62,17.14,1.82,11.64.41,23.06-4.05,34.69-3.47,17.05.86,31.68,12.31,43.39,24.74s22.05,26.58,36.45,35.74c19.08,12.13,44.32,14.89,59.29,31.82,19.09,21.6,12.56,55.12,21.47,82.54,8.46,26.04,31.37,47.8,31.61,74.99Z"/>
  <path class="cls-2" d="M306.26,460.55c-2.45,5.23-5.6,10.2-9.07,14.81-12,15.96-30.22,29.48-50.13,27.89-5.51-.44-10.88-2.02-16.39-2.38-11.07-.73-21.97,3.49-33.05,3.08-17.04-.63-31.75-12-43.46-24.39-11.71-12.39-22-26.55-36.35-35.76-19.26-12.36-44.85-15.16-59.91-32.39-18.87-21.59-12.44-54.87-21.26-82.16-8.62-26.66-32.32-48.89-31.63-76.89.66-26.84,23.59-47.63,31.86-73.18,6.22-19.22,4-39.91,9.21-59.32s17.71-29.93,34.77-38.43c15.94-7.94,33.45-13.45,47.46-24.81,16.15-13.09,26.15-33.27,44.12-43.74,23.96-13.96,54.15-6.65,80.79,1.03-13.29,7.86-24.07,19.91-30.41,33.99-14.47-7.82-32.62,1.02-44.05,12.86-11.43,11.83-19.85,26.88-33.61,35.9-18.03,11.82-43.8,12.39-56.39,29.88-12.74,17.71-4.76,42.74-10.88,63.68-6.83,23.35-31.03,41.02-30.28,65.34.69,22.38,22.32,38.31,29.35,59.56,7.31,22.1-1.37,49.23,12.82,67.69,13.07,17.01,38.63,17.37,56.43,29.34,12.93,8.69,20.88,22.89,31.44,34.33s26.87,20.63,41.3,14.77c5.69-22.73,22.89-42.27,44.73-50.77,9.97-3.88,21.58-5.45,31.17-.69,11.21,5.56,17.09,18.9,16.5,31.4-.32,6.74-2.22,13.23-5.08,19.35Z"/>
  <path class="cls-4" d="M482.32,254.11c0,22.38-23.06,40.85-29.61,61.05-6.8,20.93.76,49.38-11.92,66.81-12.81,17.59-42.28,19.13-59.88,31.94-17.43,12.68-27.93,40.31-48.86,47.11-8,2.6-16.71,1.66-25.69-.42,7.21-16.74,6.63-33.95-3.08-44.51-14.41-15.66-43.43-10.77-64.84,10.93-10.22,10.38-16.85,22.71-19.41,34.47-7.48,1.4-14.71,1.72-21.44-.47-20.93-6.8-31.43-34.43-48.86-47.11-17.6-12.81-47.07-14.35-59.88-31.94-12.68-17.43-5.12-45.88-11.92-66.81-6.55-20.2-29.61-38.67-29.61-61.05s23.06-40.85,29.61-61.05c6.8-20.93-.76-49.38,11.92-66.81,12.81-17.59,42.28-19.13,59.88-31.94,17.43-12.68,27.93-40.31,48.86-47.11,7.94-2.58,16.57-1.68,25.48.38-7.6,17.01-7.16,34.62,2.71,45.37,14.41,15.65,43.43,10.76,64.84-10.94,10.43-10.58,17.13-23.21,19.57-35.2,7.62-1.47,15-1.84,21.86.39,20.93,6.8,31.43,34.43,48.86,47.11,17.6,12.81,47.07,14.35,59.88,31.94,12.68,17.43,5.12,45.88,11.92,66.81,6.55,20.2,29.61,38.67,29.61,61.05Z"/>
  <circle class="cls-3" cx="249.32" cy="55.61" r="9.5"/>
  <circle class="cls-1" cx="279.32" cy="453.61" r="9.5"/>
  <g>
    <path class="cls-5" d="M711.81,231.73v106.93h-21.39c-1.55-7.52-3.77-15.18-6.67-23-14.27,17.38-32.44,26.07-54.52,26.07-26.09,0-46.39-9.32-60.9-27.98-14.51-18.65-21.76-42.77-21.76-72.36,0-31.83,7.74-57.42,23.22-76.76,15.48-19.34,36.5-29,63.06-29,22.27,0,40.23,6.25,53.91,18.75,13.67,12.5,22.02,29.15,25.05,49.95l-44.53,5.86c-3.61-24.22-15.09-36.33-34.42-36.33-12.7,0-22.29,5.74-28.78,17.21-6.5,11.48-9.74,27.86-9.74,49.15s3.52,36.18,10.55,47.02,17.04,16.26,30.03,16.26c8.4,0,15.89-2.73,22.49-8.2,6.59-5.47,9.89-14.21,9.89-26.22h-37.65v-37.35h82.18Z"/>
    <path class="cls-5" d="M875.73,338.66h-42.33c-1.37-5.86-2.05-13.57-2.05-23.14-7.41,10.55-14.8,17.56-22.16,21.02-7.36,3.46-15.72,5.2-25.08,5.2-13.85,0-25.04-3.76-33.57-11.28-8.53-7.52-12.8-17.62-12.8-30.32,0-9.28,2.49-17.82,7.46-25.63,4.97-7.81,12.97-13.94,23.98-18.38,11.02-4.44,31.1-7.74,60.26-9.89v-8.5c0-14.36-7.16-21.53-21.47-21.53-15.29,0-23.8,7.18-25.55,21.53l-40.28-3.81c2.64-16.8,10.59-28.71,23.88-35.74,13.28-7.03,28.32-10.55,45.12-10.55,10.06,0,19.53,1.17,28.42,3.52,8.88,2.34,15.82,5.86,20.8,10.55s8.35,9.65,10.11,14.87c1.76,5.23,2.64,14.33,2.64,27.32v67.09c0,12.89.88,22.12,2.64,27.69ZM829.44,267.77c-30.47,3.03-45.7,12.26-45.7,27.69,0,5.18,1.6,9.65,4.82,13.4,3.21,3.76,7.79,5.64,13.73,5.64,7.69,0,14.14-3.2,19.35-9.59,5.21-6.4,7.81-14.28,7.81-23.66v-13.48Z"/>
    <path class="cls-5" d="M1019.87,226.46l-31.79,8.5c-3.71-13.38-13.33-20.07-28.86-20.07-14.65,0-21.97,4.45-21.97,13.36,0,3.52,1.34,6.34,4.03,8.44,2.68,2.1,9.69,3.88,21.02,5.33,16.9,2.23,29.39,4.81,37.5,7.74,8.1,2.93,14.52,7.86,19.26,14.79,4.74,6.94,7.1,15.48,7.1,25.63,0,15.23-5.79,27.64-17.36,37.21-11.57,9.57-27.76,14.36-48.56,14.36-37.7,0-60.21-14.6-67.53-43.8l36.77-5.42c3.03,13.28,13.96,19.92,32.81,19.92,7.23,0,13.33-1.29,18.31-3.89,4.98-2.59,7.47-6.09,7.47-10.5,0-6.85-5.51-10.91-16.55-12.17-29.89-3.68-49.54-9.4-58.96-17.17-9.43-7.76-14.14-18.58-14.14-32.45s5.47-25.68,16.41-34.86c10.94-9.18,26.27-13.77,46-13.77,15.62,0,28.12,3.08,37.5,9.23s16.55,16.02,21.53,29.59Z"/>
    <path class="cls-5" d="M1181.15,283.15c-1.66,17.48-8.57,31.62-20.73,42.41-12.16,10.79-27.86,16.19-47.09,16.19-20.9,0-37.92-6.91-51.05-20.73-13.14-13.82-19.7-32.3-19.7-55.44s6.71-41.92,20.14-56.32c13.43-14.4,31.37-21.61,53.83-21.61,18.07,0,33.03,5.42,44.9,16.26s18.43,24.42,19.7,40.72l-40.72,2.34c-1.37-17.77-9.08-26.66-23.14-26.66-17.29,0-25.93,14.16-25.93,42.48,0,18.85,2.42,30.81,7.25,35.89,4.83,5.08,10.72,7.62,17.65,7.62,13.48,0,21.53-8.54,24.17-25.63l40.72,2.49Z"/>
    <path class="cls-5" d="M1333.64,338.66h-42.33c-1.37-5.86-2.05-13.57-2.05-23.14-7.41,10.55-14.8,17.56-22.16,21.02-7.36,3.46-15.72,5.2-25.08,5.2-13.85,0-25.04-3.76-33.57-11.28-8.53-7.52-12.8-17.62-12.8-30.32,0-9.28,2.49-17.82,7.46-25.63,4.97-7.81,12.97-13.94,23.98-18.38,11.02-4.44,31.1-7.74,60.26-9.89v-8.5c0-14.36-7.16-21.53-21.47-21.53-15.29,0-23.8,7.18-25.55,21.53l-40.28-3.81c2.64-16.8,10.59-28.71,23.88-35.74,13.28-7.03,28.32-10.55,45.12-10.55,10.06,0,19.53,1.17,28.42,3.52,8.88,2.34,15.82,5.86,20.8,10.55s8.35,9.65,10.11,14.87c1.76,5.23,2.64,14.33,2.64,27.32v67.09c0,12.89.88,22.12,2.64,27.69ZM1287.35,267.77c-30.47,3.03-45.7,12.26-45.7,27.69,0,5.18,1.6,9.65,4.82,13.4,3.21,3.76,7.79,5.64,13.73,5.64,7.69,0,14.14-3.2,19.35-9.59,5.21-6.4,7.81-14.28,7.81-23.66v-13.48Z"/>
    <path class="cls-5" d="M1409.37,338.66h-42.33v-147.95h39.99v27.54c6.15-20.51,16.79-30.76,31.93-30.76,2.15,0,4.78.15,7.91.44v43.07c-8.89,0-15.8,1.37-20.73,4.1-4.93,2.74-8.96,7.64-12.08,14.72-3.13,7.08-4.69,16.63-4.69,28.64v60.21Z"/>
    <path class="cls-5" d="M1597.02,138.71v199.95h-40.28v-23.14c-9.98,17.48-23.57,26.22-40.79,26.22s-29.22-6.66-38.66-19.99-14.16-31.81-14.16-55.44,4.72-43.87,14.16-57.79c9.44-13.92,23.11-20.87,41.01-20.87,15.75,0,27.88,6.2,36.39,18.6v-67.53h42.33ZM1554.69,252.68c0-23.24-7.05-34.86-21.16-34.86-16.85,0-25.28,16.41-25.28,49.22,0,29.2,7.88,43.8,23.66,43.8,6.07,0,11.39-2.64,15.94-7.91s6.83-12.79,6.83-22.56v-27.69Z"/>
  </g>
</svg>